{
    "asset" : {
        "generator" : "Khronos glTF Blender I/O v1.7.33",
        "version" : "2.0"
    },
    "scene" : 0,
    "scenes" : [
        {
            "name" : "Scene",
            "nodes" : [
                0
            ]
        }
    ],
    "nodes" : [
        {
            "mesh" : 0,
            "name" : "ElaModel"
        }
    ],
    "materials" : [
        {
            "doubleSided" : true,
            "name" : "Body",
            "pbrMetallicRoughness" : {
                "baseColorTexture" : {
                    "index" : 0
                },
                "metallicFactor" : 0,
                "roughnessFactor" : 0.5
            }
        },
        {
            "doubleSided" : true,
            "name" : "Hair",
            "pbrMetallicRoughness" : {
                "baseColorTexture" : {
                    "index" : 1
                },
                "metallicFactor" : 0,
                "roughnessFactor" : 0.4000000059604645
            }
        },
        {
            "alphaCutoff" : 0.5,
            "alphaMode" : "MASK",
            "doubleSided" : true,
            "name" : "Mouth",
            "pbrMetallicRoughness" : {
                "baseColorTexture" : {
                    "index" : 2
                },
                "metallicFactor" : 0,
                "roughnessFactor" : 0.5
            }
        },
        {
            "alphaCutoff" : 0.5,
            "alphaMode" : "MASK",
            "doubleSided" : true,
            "name" : "Eye",
            "pbrMetallicRoughness" : {
                "baseColorTexture" : {
                    "index" : 3
                },
                "metallicFactor" : 0,
                "roughnessFactor" : 0.5
            }
        },
        {
            "alphaCutoff" : 0.5,
            "alphaMode" : "MASK",
            "doubleSided" : true,
            "name" : "Eyebrow",
            "pbrMetallicRoughness" : {
                "baseColorTexture" : {
                    "index" : 4
                },
                "metallicFactor" : 0,
                "roughnessFactor" : 0.5
            }
        }
    ],
    "meshes" : [
        {
            "name" : "Cube.002",
            "primitives" : [
                {
                    "attributes" : {
                        "POSITION" : 0,
                        "NORMAL" : 1,
                        "TEXCOORD_0" : 2,
                        "TEXCOORD_1" : 3,
                        "TEXCOORD_2" : 4,
                        "COLOR_0" : 5
                    },
                    "indices" : 6,
                    "material" : 0
                },
                {
                    "attributes" : {
                        "POSITION" : 7,
                        "NORMAL" : 8,
                        "TEXCOORD_0" : 9,
                        "TEXCOORD_1" : 10,
                        "TEXCOORD_2" : 11,
                        "COLOR_0" : 12
                    },
                    "indices" : 13,
                    "material" : 1
                },
                {
                    "attributes" : {
                        "POSITION" : 14,
                        "NORMAL" : 15,
                        "TEXCOORD_0" : 16,
                        "TEXCOORD_1" : 17,
                        "TEXCOORD_2" : 18,
                        "COLOR_0" : 19
                    },
                    "indices" : 20,
                    "material" : 2
                },
                {
                    "attributes" : {
                        "POSITION" : 21,
                        "NORMAL" : 22,
                        "TEXCOORD_0" : 23,
                        "TEXCOORD_1" : 24,
                        "TEXCOORD_2" : 25,
                        "COLOR_0" : 26
                    },
                    "indices" : 27,
                    "material" : 3
                },
                {
                    "attributes" : {
                        "POSITION" : 28,
                        "NORMAL" : 29,
                        "TEXCOORD_0" : 30,
                        "TEXCOORD_1" : 31,
                        "TEXCOORD_2" : 32,
                        "COLOR_0" : 33
                    },
                    "indices" : 34,
                    "material" : 4
                }
            ]
        }
    ],
    "textures" : [
        {
            "sampler" : 0,
            "source" : 0
        },
        {
            "sampler" : 0,
            "source" : 1
        },
        {
            "sampler" : 0,
            "source" : 2
        },
        {
            "sampler" : 0,
            "source" : 3
        },
        {
            "sampler" : 0,
            "source" : 4
        }
    ],
    "images" : [
        {
            "bufferView" : 7,
            "mimeType" : "image/png",
            "name" : "Ela Model_Body_BaseColor"
        },
        {
            "bufferView" : 15,
            "mimeType" : "image/png",
            "name" : "Ela Model_Hair_BaseColor"
        },
        {
            "bufferView" : 23,
            "mimeType" : "image/png",
            "name" : "Mouth_Smile"
        },
        {
            "bufferView" : 31,
            "mimeType" : "image/png",
            "name" : "Ela Eye 1"
        },
        {
            "bufferView" : 39,
            "mimeType" : "image/png",
            "name" : "Ela Eyebrow 2"
        }
    ],
    "accessors" : [
        {
            "bufferView" : 0,
            "componentType" : 5126,
            "count" : 2272,
            "max" : [
                0.603054404258728,
                1.9901716709136963,
                0.21738296747207642
            ],
            "min" : [
                -0.603054404258728,
                0,
                -0.44018715620040894
            ],
            "type" : "VEC3"
        },
        {
            "bufferView" : 1,
            "componentType" : 5126,
            "count" : 2272,
            "type" : "VEC3"
        },
        {
            "bufferView" : 2,
            "componentType" : 5126,
            "count" : 2272,
            "type" : "VEC2"
        },
        {
            "bufferView" : 3,
            "componentType" : 5126,
            "count" : 2272,
            "type" : "VEC2"
        },
        {
            "bufferView" : 4,
            "componentType" : 5126,
            "count" : 2272,
            "type" : "VEC2"
        },
        {
            "bufferView" : 5,
            "componentType" : 5123,
            "count" : 2272,
            "normalized" : true,
            "type" : "VEC4"
        },
        {
            "bufferView" : 6,
            "componentType" : 5123,
            "count" : 10272,
            "type" : "SCALAR"
        },
        {
            "bufferView" : 8,
            "componentType" : 5126,
            "count" : 980,
            "max" : [
                0.5052728652954102,
                1.9103939533233643,
                0.23420479893684387
            ],
            "min" : [
                -0.5052728652954102,
                0.7390745282173157,
                -0.34570053219795227
            ],
            "type" : "VEC3"
        },
        {
            "bufferView" : 9,
            "componentType" : 5126,
            "count" : 980,
            "type" : "VEC3"
        },
        {
            "bufferView" : 10,
            "componentType" : 5126,
            "count" : 980,
            "type" : "VEC2"
        },
        {
            "bufferView" : 11,
            "componentType" : 5126,
            "count" : 980,
            "type" : "VEC2"
        },
        {
            "bufferView" : 12,
            "componentType" : 5126,
            "count" : 980,
            "type" : "VEC2"
        },
        {
            "bufferView" : 13,
            "componentType" : 5123,
            "count" : 980,
            "normalized" : true,
            "type" : "VEC4"
        },
        {
            "bufferView" : 14,
            "componentType" : 5123,
            "count" : 2760,
            "type" : "SCALAR"
        },
        {
            "bufferView" : 16,
            "componentType" : 5126,
            "count" : 28,
            "max" : [
                0.07333338260650635,
                1.4220547676086426,
                0.18505419790744781
            ],
            "min" : [
                -0.07333338260650635,
                1.3393065929412842,
                0.13846661150455475
            ],
            "type" : "VEC3"
        },
        {
            "bufferView" : 17,
            "componentType" : 5126,
            "count" : 28,
            "type" : "VEC3"
        },
        {
            "bufferView" : 18,
            "componentType" : 5126,
            "count" : 28,
            "type" : "VEC2"
        },
        {
            "bufferView" : 19,
            "componentType" : 5126,
            "count" : 28,
            "type" : "VEC2"
        },
        {
            "bufferView" : 20,
            "componentType" : 5126,
            "count" : 28,
            "type" : "VEC2"
        },
        {
            "bufferView" : 21,
            "componentType" : 5123,
            "count" : 28,
            "normalized" : true,
            "type" : "VEC4"
        },
        {
            "bufferView" : 22,
            "componentType" : 5123,
            "count" : 108,
            "type" : "SCALAR"
        },
        {
            "bufferView" : 24,
            "componentType" : 5126,
            "count" : 51,
            "max" : [
                0.20585158467292786,
                1.6159417629241943,
                0.19863560795783997
            ],
            "min" : [
                -0.20585158467292786,
                1.467446208000183,
                0.06529732048511505
            ],
            "type" : "VEC3"
        },
        {
            "bufferView" : 25,
            "componentType" : 5126,
            "count" : 51,
            "type" : "VEC3"
        },
        {
            "bufferView" : 26,
            "componentType" : 5126,
            "count" : 51,
            "type" : "VEC2"
        },
        {
            "bufferView" : 27,
            "componentType" : 5126,
            "count" : 51,
            "type" : "VEC2"
        },
        {
            "bufferView" : 28,
            "componentType" : 5126,
            "count" : 51,
            "type" : "VEC2"
        },
        {
            "bufferView" : 29,
            "componentType" : 5123,
            "count" : 51,
            "normalized" : true,
            "type" : "VEC4"
        },
        {
            "bufferView" : 30,
            "componentType" : 5123,
            "count" : 204,
            "type" : "SCALAR"
        },
        {
            "bufferView" : 32,
            "componentType" : 5126,
            "count" : 39,
            "max" : [
                0.21600966155529022,
                1.7377828359603882,
                0.20924259722232819
            ],
            "min" : [
                -0.21600966155529022,
                1.582624077796936,
                0.03409517556428909
            ],
            "type" : "VEC3"
        },
        {
            "bufferView" : 33,
            "componentType" : 5126,
            "count" : 39,
            "type" : "VEC3"
        },
        {
            "bufferView" : 34,
            "componentType" : 5126,
            "count" : 39,
            "type" : "VEC2"
        },
        {
            "bufferView" : 35,
            "componentType" : 5126,
            "count" : 39,
            "type" : "VEC2"
        },
        {
            "bufferView" : 36,
            "componentType" : 5126,
            "count" : 39,
            "type" : "VEC2"
        },
        {
            "bufferView" : 37,
            "componentType" : 5123,
            "count" : 39,
            "normalized" : true,
            "type" : "VEC4"
        },
        {
            "bufferView" : 38,
            "componentType" : 5123,
            "count" : 144,
            "type" : "SCALAR"
        }
    ],
    "bufferViews" : [
        {
            "buffer" : 0,
            "byteLength" : 27264,
            "byteOffset" : 0
        },
        {
            "buffer" : 0,
            "byteLength" : 27264,
            "byteOffset" : 27264
        },
        {
            "buffer" : 0,
            "byteLength" : 18176,
            "byteOffset" : 54528
        },
        {
            "buffer" : 0,
            "byteLength" : 18176,
            "byteOffset" : 72704
        },
        {
            "buffer" : 0,
            "byteLength" : 18176,
            "byteOffset" : 90880
        },
        {
            "buffer" : 0,
            "byteLength" : 18176,
            "byteOffset" : 109056
        },
        {
            "buffer" : 0,
            "byteLength" : 20544,
            "byteOffset" : 127232
        },
        {
            "buffer" : 0,
            "byteLength" : 250782,
            "byteOffset" : 147776
        },
        {
            "buffer" : 0,
            "byteLength" : 11760,
            "byteOffset" : 398560
        },
        {
            "buffer" : 0,
            "byteLength" : 11760,
            "byteOffset" : 410320
        },
        {
            "buffer" : 0,
            "byteLength" : 7840,
            "byteOffset" : 422080
        },
        {
            "buffer" : 0,
            "byteLength" : 7840,
            "byteOffset" : 429920
        },
        {
            "buffer" : 0,
            "byteLength" : 7840,
            "byteOffset" : 437760
        },
        {
            "buffer" : 0,
            "byteLength" : 7840,
            "byteOffset" : 445600
        },
        {
            "buffer" : 0,
            "byteLength" : 5520,
            "byteOffset" : 453440
        },
        {
            "buffer" : 0,
            "byteLength" : 73628,
            "byteOffset" : 458960
        },
        {
            "buffer" : 0,
            "byteLength" : 336,
            "byteOffset" : 532588
        },
        {
            "buffer" : 0,
            "byteLength" : 336,
            "byteOffset" : 532924
        },
        {
            "buffer" : 0,
            "byteLength" : 224,
            "byteOffset" : 533260
        },
        {
            "buffer" : 0,
            "byteLength" : 224,
            "byteOffset" : 533484
        },
        {
            "buffer" : 0,
            "byteLength" : 224,
            "byteOffset" : 533708
        },
        {
            "buffer" : 0,
            "byteLength" : 224,
            "byteOffset" : 533932
        },
        {
            "buffer" : 0,
            "byteLength" : 216,
            "byteOffset" : 534156
        },
        {
            "buffer" : 0,
            "byteLength" : 5016,
            "byteOffset" : 534372
        },
        {
            "buffer" : 0,
            "byteLength" : 612,
            "byteOffset" : 539388
        },
        {
            "buffer" : 0,
            "byteLength" : 612,
            "byteOffset" : 540000
        },
        {
            "buffer" : 0,
            "byteLength" : 408,
            "byteOffset" : 540612
        },
        {
            "buffer" : 0,
            "byteLength" : 408,
            "byteOffset" : 541020
        },
        {
            "buffer" : 0,
            "byteLength" : 408,
            "byteOffset" : 541428
        },
        {
            "buffer" : 0,
            "byteLength" : 408,
            "byteOffset" : 541836
        },
        {
            "buffer" : 0,
            "byteLength" : 408,
            "byteOffset" : 542244
        },
        {
            "buffer" : 0,
            "byteLength" : 12971,
            "byteOffset" : 542652
        },
        {
            "buffer" : 0,
            "byteLength" : 468,
            "byteOffset" : 555624
        },
        {
            "buffer" : 0,
            "byteLength" : 468,
            "byteOffset" : 556092
        },
        {
            "buffer" : 0,
            "byteLength" : 312,
            "byteOffset" : 556560
        },
        {
            "buffer" : 0,
            "byteLength" : 312,
            "byteOffset" : 556872
        },
        {
            "buffer" : 0,
            "byteLength" : 312,
            "byteOffset" : 557184
        },
        {
            "buffer" : 0,
            "byteLength" : 312,
            "byteOffset" : 557496
        },
        {
            "buffer" : 0,
            "byteLength" : 288,
            "byteOffset" : 557808
        },
        {
            "buffer" : 0,
            "byteLength" : 7379,
            "byteOffset" : 558096
        }
    ],
    "samplers" : [
        {
            "magFilter" : 9729,
            "minFilter" : 9987
        }
    ],
    "buffers" : [
        {
            "byteLength" : 565476,
            "uri" : "data:application/octet-stream;base64,"
        }
    ]
}
