{
    "asset" : {
        "generator" : "Khronos glTF Blender I/O v1.7.33",
        "version" : "2.0"
    },
    "scene" : 0,
    "scenes" : [
        {
            "name" : "Scene",
            "nodes" : [
                0
            ]
        }
    ],
    "nodes" : [
        {
            "mesh" : 0,
            "name" : "Enemy",
            "scale" : [
                0.699999988079071,
                0.699999988079071,
                0.699999988079071
            ]
        }
    ],
    "materials" : [
        {
            "doubleSided" : true,
            "name" : "Enemy Skin",
            "pbrMetallicRoughness" : {
                "baseColorFactor" : [
                    0.14125952124595642,
                    0.14125952124595642,
                    0.14125952124595642,
                    1
                ]
            }
        },
        {
            "doubleSided" : true,
            "emissiveFactor" : [
                1,
                1,
                1
            ],
            "name" : "Enemy Eye",
            "pbrMetallicRoughness" : {
                "metallicFactor" : 0,
                "roughnessFactor" : 0.5
            }
        }
    ],
    "meshes" : [
        {
            "name" : "Cube",
            "primitives" : [
                {
                    "attributes" : {
                        "POSITION" : 0,
                        "NORMAL" : 1,
                        "TEXCOORD_0" : 2
                    },
                    "indices" : 3,
                    "material" : 0
                },
                {
                    "attributes" : {
                        "POSITION" : 4,
                        "NORMAL" : 5,
                        "TEXCOORD_0" : 6
                    },
                    "indices" : 7,
                    "material" : 1
                }
            ]
        }
    ],
    "accessors" : [
        {
            "bufferView" : 0,
            "componentType" : 5126,
            "count" : 984,
            "max" : [
                0.8445354104042053,
                2.4912288188934326,
                0.28331103920936584
            ],
            "min" : [
                -0.8445354104042053,
                0,
                -0.1371065229177475
            ],
            "type" : "VEC3"
        },
        {
            "bufferView" : 1,
            "componentType" : 5126,
            "count" : 984,
            "type" : "VEC3"
        },
        {
            "bufferView" : 2,
            "componentType" : 5126,
            "count" : 984,
            "type" : "VEC2"
        },
        {
            "bufferView" : 3,
            "componentType" : 5123,
            "count" : 2952,
            "type" : "SCALAR"
        },
        {
            "bufferView" : 4,
            "componentType" : 5126,
            "count" : 177,
            "max" : [
                0.041647717356681824,
                2.368276834487915,
                0.15751954913139343
            ],
            "min" : [
                -0.041647717356681824,
                2.282562732696533,
                0.11466241627931595
            ],
            "type" : "VEC3"
        },
        {
            "bufferView" : 5,
            "componentType" : 5126,
            "count" : 177,
            "type" : "VEC3"
        },
        {
            "bufferView" : 6,
            "componentType" : 5126,
            "count" : 177,
            "type" : "VEC2"
        },
        {
            "bufferView" : 7,
            "componentType" : 5123,
            "count" : 672,
            "type" : "SCALAR"
        }
    ],
    "bufferViews" : [
        {
            "buffer" : 0,
            "byteLength" : 11808,
            "byteOffset" : 0
        },
        {
            "buffer" : 0,
            "byteLength" : 11808,
            "byteOffset" : 11808
        },
        {
            "buffer" : 0,
            "byteLength" : 7872,
            "byteOffset" : 23616
        },
        {
            "buffer" : 0,
            "byteLength" : 5904,
            "byteOffset" : 31488
        },
        {
            "buffer" : 0,
            "byteLength" : 2124,
            "byteOffset" : 37392
        },
        {
            "buffer" : 0,
            "byteLength" : 2124,
            "byteOffset" : 39516
        },
        {
            "buffer" : 0,
            "byteLength" : 1416,
            "byteOffset" : 41640
        },
        {
            "buffer" : 0,
            "byteLength" : 1344,
            "byteOffset" : 43056
        }
    ],
    "buffers" : [
        {
            "byteLength" : 44400,
            "uri" : "data:application/octet-stream;base64,"
        }
    ]
}
