{
    "asset" : {
        "generator" : "Khronos glTF Blender I/O v1.7.33",
        "version" : "2.0"
    },
    "scene" : 0,
    "scenes" : [
        {
            "name" : "Scene",
            "nodes" : [
                0
            ]
        }
    ],
    "nodes" : [
        {
            "mesh" : 0,
            "name" : "Character.Backup"
        }
    ],
    "materials" : [
        {
            "doubleSided" : true,
            "name" : "Body",
            "pbrMetallicRoughness" : {
                "baseColorFactor" : [
                    1,
                    0,
                    0.019676245748996735,
                    1
                ],
                "metallicFactor" : 0,
                "roughnessFactor" : 0.4000000059604645
            }
        },
        {
            "doubleSided" : true,
            "name" : "Skin",
            "pbrMetallicRoughness" : {
                "baseColorFactor" : [
                    1,
                    0.9284355044364929,
                    0.7320658564567566,
                    1
                ],
                "metallicFactor" : 0,
                "roughnessFactor" : 0.5
            }
        },
        {
            "doubleSided" : true,
            "name" : "Eye",
            "pbrMetallicRoughness" : {
                "baseColorFactor" : [
                    0,
                    0,
                    0,
                    1
                ],
                "metallicFactor" : 0,
                "roughnessFactor" : 0.5
            }
        }
    ],
    "meshes" : [
        {
            "name" : "Sphere.002",
            "primitives" : [
                {
                    "attributes" : {
                        "POSITION" : 0,
                        "NORMAL" : 1,
                        "TEXCOORD_0" : 2
                    },
                    "indices" : 3,
                    "material" : 0
                },
                {
                    "attributes" : {
                        "POSITION" : 4,
                        "NORMAL" : 5,
                        "TEXCOORD_0" : 6
                    },
                    "indices" : 7,
                    "material" : 1
                },
                {
                    "attributes" : {
                        "POSITION" : 8,
                        "NORMAL" : 9,
                        "TEXCOORD_0" : 10
                    },
                    "indices" : 11,
                    "material" : 2
                }
            ]
        }
    ],
    "accessors" : [
        {
            "bufferView" : 0,
            "componentType" : 5126,
            "count" : 713,
            "max" : [
                1.6138973236083984,
                2.3486764430999756,
                0.4907214641571045
            ],
            "min" : [
                -1.6138973236083984,
                -0.0005620624870061874,
                -0.5035117864608765
            ],
            "type" : "VEC3"
        },
        {
            "bufferView" : 1,
            "componentType" : 5126,
            "count" : 713,
            "type" : "VEC3"
        },
        {
            "bufferView" : 2,
            "componentType" : 5126,
            "count" : 713,
            "type" : "VEC2"
        },
        {
            "bufferView" : 3,
            "componentType" : 5123,
            "count" : 3612,
            "type" : "SCALAR"
        },
        {
            "bufferView" : 4,
            "componentType" : 5126,
            "count" : 103,
            "max" : [
                0.4234459400177002,
                2.058046817779541,
                0.6399751901626587
            ],
            "min" : [
                -0.4234459400177002,
                1.2257925271987915,
                0.26301151514053345
            ],
            "type" : "VEC3"
        },
        {
            "bufferView" : 5,
            "componentType" : 5126,
            "count" : 103,
            "type" : "VEC3"
        },
        {
            "bufferView" : 6,
            "componentType" : 5126,
            "count" : 103,
            "type" : "VEC2"
        },
        {
            "bufferView" : 7,
            "componentType" : 5123,
            "count" : 528,
            "type" : "SCALAR"
        },
        {
            "bufferView" : 8,
            "componentType" : 5126,
            "count" : 302,
            "max" : [
                0.32148659229278564,
                1.7879999876022339,
                0.6434922218322754
            ],
            "min" : [
                -0.32148659229278564,
                1.5720000267028809,
                0.522362232208252
            ],
            "type" : "VEC3"
        },
        {
            "bufferView" : 9,
            "componentType" : 5126,
            "count" : 302,
            "type" : "VEC3"
        },
        {
            "bufferView" : 10,
            "componentType" : 5126,
            "count" : 302,
            "type" : "VEC2"
        },
        {
            "bufferView" : 11,
            "componentType" : 5123,
            "count" : 1344,
            "type" : "SCALAR"
        }
    ],
    "bufferViews" : [
        {
            "buffer" : 0,
            "byteLength" : 8556,
            "byteOffset" : 0
        },
        {
            "buffer" : 0,
            "byteLength" : 8556,
            "byteOffset" : 8556
        },
        {
            "buffer" : 0,
            "byteLength" : 5704,
            "byteOffset" : 17112
        },
        {
            "buffer" : 0,
            "byteLength" : 7224,
            "byteOffset" : 22816
        },
        {
            "buffer" : 0,
            "byteLength" : 1236,
            "byteOffset" : 30040
        },
        {
            "buffer" : 0,
            "byteLength" : 1236,
            "byteOffset" : 31276
        },
        {
            "buffer" : 0,
            "byteLength" : 824,
            "byteOffset" : 32512
        },
        {
            "buffer" : 0,
            "byteLength" : 1056,
            "byteOffset" : 33336
        },
        {
            "buffer" : 0,
            "byteLength" : 3624,
            "byteOffset" : 34392
        },
        {
            "buffer" : 0,
            "byteLength" : 3624,
            "byteOffset" : 38016
        },
        {
            "buffer" : 0,
            "byteLength" : 2416,
            "byteOffset" : 41640
        },
        {
            "buffer" : 0,
            "byteLength" : 2688,
            "byteOffset" : 44056
        }
    ],
    "buffers" : [
        {
            "byteLength" : 46744,
            "uri" : "data:application/octet-stream;base64,"
        }
    ]
}
