{
    "asset" : {
        "generator" : "Khronos glTF Blender I/O v1.7.33",
        "version" : "2.0"
    },
    "scene" : 0,
    "scenes" : [
        {
            "name" : "Scene",
            "nodes" : [
                0
            ]
        }
    ],
    "nodes" : [
        {
            "mesh" : 0,
            "name" : "Char"
        }
    ],
    "materials" : [
        {
            "doubleSided" : true,
            "name" : "Costume",
            "pbrMetallicRoughness" : {
                "baseColorFactor" : [
                    0.8000000715255737,
                    0,
                    0.0030895662494003773,
                    1
                ],
                "metallicFactor" : 0,
                "roughnessFactor" : 0.5
            }
        },
        {
            "doubleSided" : true,
            "name" : "Skin",
            "pbrMetallicRoughness" : {
                "baseColorFactor" : [
                    0,
                    0,
                    0,
                    1
                ],
                "metallicFactor" : 0,
                "roughnessFactor" : 0.5
            }
        },
        {
            "doubleSided" : true,
            "name" : "Eyes",
            "pbrMetallicRoughness" : {
                "metallicFactor" : 0,
                "roughnessFactor" : 0.5
            }
        }
    ],
    "meshes" : [
        {
            "name" : "Circle.001",
            "primitives" : [
                {
                    "attributes" : {
                        "POSITION" : 0,
                        "NORMAL" : 1,
                        "TEXCOORD_0" : 2,
                        "COLOR_0" : 3
                    },
                    "indices" : 4,
                    "material" : 0
                },
                {
                    "attributes" : {
                        "POSITION" : 5,
                        "NORMAL" : 6,
                        "TEXCOORD_0" : 7,
                        "COLOR_0" : 8
                    },
                    "indices" : 9,
                    "material" : 1
                },
                {
                    "attributes" : {
                        "POSITION" : 10,
                        "NORMAL" : 11,
                        "TEXCOORD_0" : 12,
                        "COLOR_0" : 13
                    },
                    "indices" : 14,
                    "material" : 2
                }
            ]
        }
    ],
    "accessors" : [
        {
            "bufferView" : 0,
            "componentType" : 5126,
            "count" : 2110,
            "max" : [
                0.8222527503967285,
                2.916743278503418,
                0.5168865323066711
            ],
            "min" : [
                -0.8222527503967285,
                0.13690191507339478,
                -0.5831612348556519
            ],
            "type" : "VEC3"
        },
        {
            "bufferView" : 1,
            "componentType" : 5126,
            "count" : 2110,
            "type" : "VEC3"
        },
        {
            "bufferView" : 2,
            "componentType" : 5126,
            "count" : 2110,
            "type" : "VEC2"
        },
        {
            "bufferView" : 3,
            "componentType" : 5123,
            "count" : 2110,
            "normalized" : true,
            "type" : "VEC4"
        },
        {
            "bufferView" : 4,
            "componentType" : 5123,
            "count" : 10566,
            "type" : "SCALAR"
        },
        {
            "bufferView" : 5,
            "componentType" : 5126,
            "count" : 1106,
            "max" : [
                0.8601312637329102,
                2.5820398330688477,
                0.512165904045105
            ],
            "min" : [
                -0.8601312637329102,
                -0.0006073341355659068,
                -0.20161639153957367
            ],
            "type" : "VEC3"
        },
        {
            "bufferView" : 6,
            "componentType" : 5126,
            "count" : 1106,
            "type" : "VEC3"
        },
        {
            "bufferView" : 7,
            "componentType" : 5126,
            "count" : 1106,
            "type" : "VEC2"
        },
        {
            "bufferView" : 8,
            "componentType" : 5123,
            "count" : 1106,
            "normalized" : true,
            "type" : "VEC4"
        },
        {
            "bufferView" : 9,
            "componentType" : 5123,
            "count" : 5346,
            "type" : "SCALAR"
        },
        {
            "bufferView" : 10,
            "componentType" : 5126,
            "count" : 324,
            "max" : [
                0.2312336564064026,
                2.3701670169830322,
                0.5060666799545288
            ],
            "min" : [
                -0.2312336564064026,
                2.2299110889434814,
                0.4390452802181244
            ],
            "type" : "VEC3"
        },
        {
            "bufferView" : 11,
            "componentType" : 5126,
            "count" : 324,
            "type" : "VEC3"
        },
        {
            "bufferView" : 12,
            "componentType" : 5126,
            "count" : 324,
            "type" : "VEC2"
        },
        {
            "bufferView" : 13,
            "componentType" : 5123,
            "count" : 324,
            "normalized" : true,
            "type" : "VEC4"
        },
        {
            "bufferView" : 14,
            "componentType" : 5123,
            "count" : 1536,
            "type" : "SCALAR"
        }
    ],
    "bufferViews" : [
        {
            "buffer" : 0,
            "byteLength" : 25320,
            "byteOffset" : 0
        },
        {
            "buffer" : 0,
            "byteLength" : 25320,
            "byteOffset" : 25320
        },
        {
            "buffer" : 0,
            "byteLength" : 16880,
            "byteOffset" : 50640
        },
        {
            "buffer" : 0,
            "byteLength" : 16880,
            "byteOffset" : 67520
        },
        {
            "buffer" : 0,
            "byteLength" : 21132,
            "byteOffset" : 84400
        },
        {
            "buffer" : 0,
            "byteLength" : 13272,
            "byteOffset" : 105532
        },
        {
            "buffer" : 0,
            "byteLength" : 13272,
            "byteOffset" : 118804
        },
        {
            "buffer" : 0,
            "byteLength" : 8848,
            "byteOffset" : 132076
        },
        {
            "buffer" : 0,
            "byteLength" : 8848,
            "byteOffset" : 140924
        },
        {
            "buffer" : 0,
            "byteLength" : 10692,
            "byteOffset" : 149772
        },
        {
            "buffer" : 0,
            "byteLength" : 3888,
            "byteOffset" : 160464
        },
        {
            "buffer" : 0,
            "byteLength" : 3888,
            "byteOffset" : 164352
        },
        {
            "buffer" : 0,
            "byteLength" : 2592,
            "byteOffset" : 168240
        },
        {
            "buffer" : 0,
            "byteLength" : 2592,
            "byteOffset" : 170832
        },
        {
            "buffer" : 0,
            "byteLength" : 3072,
            "byteOffset" : 173424
        }
    ],
    "buffers" : [
        {
            "byteLength" : 176496,
            "uri" : "data:application/octet-stream;base64,"
        }
    ]
}
